<svg width="132" height="133" viewBox="0 0 132 133" fill="none" xmlns="http://www.w3.org/2000/svg">
<g filter="url(#filter0_d_82_722)">
<rect x="6" y="5" width="120.046" height="120.046" rx="60.0232" fill="white"/>
<rect x="6.70556" y="5.70556" width="118.635" height="118.635" rx="59.3177" stroke="#F1F3F7" stroke-width="1.41111"/>
</g>
<g filter="url(#filter1_dddii_82_722)">
<path d="M65.975 29.3037C45.9992 29.3037 29.8042 45.4987 29.8042 65.4745C29.8042 85.4503 45.9992 101.645 65.975 101.645C85.9507 101.645 102.146 85.4503 102.146 65.4745C102.146 45.4987 85.9507 29.3037 65.975 29.3037ZM76.3647 79.7344C74.7869 81.6546 72.7328 82.9496 70.3363 83.6045C69.2943 83.8873 68.818 84.4381 68.8776 85.5247C68.9222 86.5964 68.8776 87.6533 68.8627 88.725C68.8627 89.6776 68.3715 90.1837 67.4337 90.2135C66.8234 90.2284 66.2131 90.2433 65.6028 90.2433C65.067 90.2433 64.5311 90.2433 63.9952 90.2284C62.9831 90.2135 62.5067 89.633 62.5067 88.6506C62.4919 87.8765 62.4919 87.0876 62.4919 86.3136C62.477 84.5869 62.4174 84.5274 60.7652 84.2595C58.6515 83.9171 56.5676 83.4408 54.6325 82.503C53.1142 81.7588 52.9505 81.3866 53.3822 79.779C53.7096 78.5882 54.0371 77.3974 54.4092 76.2215C54.6772 75.3582 54.9302 74.9712 55.3917 74.9712C55.6596 74.9712 56.002 75.1051 56.4634 75.3433C58.6068 76.4597 60.8843 77.0848 63.2808 77.3825C63.6827 77.4272 64.0846 77.457 64.4865 77.457C65.6028 77.457 66.6894 77.2486 67.7463 76.7871C70.4107 75.6261 70.8275 72.5449 68.5799 70.6991C67.8207 70.074 66.9425 69.6125 66.0345 69.2106C63.6975 68.1836 61.2713 67.4095 59.0683 66.0848C55.4959 63.9413 53.2333 61.0089 53.5013 56.6625C53.799 51.7504 56.5825 48.6841 61.0927 47.0467C62.9533 46.3769 62.9682 46.3918 62.9682 44.4567C62.9682 43.8018 62.9533 43.1468 62.9831 42.477C63.0277 41.0183 63.2659 40.7652 64.7246 40.7206C64.8884 40.7206 65.067 40.7206 65.2307 40.7206C65.5135 40.7206 65.7963 40.7206 66.0792 40.7206C66.1982 40.7206 66.3173 40.7206 66.4215 40.7206C69.1901 40.7206 69.1901 40.8397 69.205 43.8316C69.2199 46.0345 69.2199 46.0345 71.408 46.3769C73.09 46.6448 74.6827 47.136 76.2308 47.8208C77.0792 48.1929 77.4067 48.7883 77.1388 49.6963C76.7518 51.0359 76.3796 52.3905 75.9629 53.7153C75.6949 54.519 75.4419 54.8912 74.9656 54.8912C74.6976 54.8912 74.3702 54.787 73.9534 54.5786C71.8099 53.5366 69.5623 53.0305 67.2104 53.0305C66.9127 53.0305 66.6001 53.0454 66.3024 53.0603C65.6028 53.105 64.9181 53.1943 64.2632 53.4771C61.9411 54.4893 61.569 57.0495 63.5487 58.6273C64.546 59.4311 65.6921 59.9968 66.8681 60.488C68.9222 61.3364 70.9764 62.1551 72.9263 63.2268C79.059 66.6504 80.7261 74.4353 76.3647 79.7344Z" fill="url(#paint0_linear_82_722)"/>
<path d="M65.975 29.3037C45.9992 29.3037 29.8042 45.4987 29.8042 65.4745C29.8042 85.4503 45.9992 101.645 65.975 101.645C85.9507 101.645 102.146 85.4503 102.146 65.4745C102.146 45.4987 85.9507 29.3037 65.975 29.3037ZM76.3647 79.7344C74.7869 81.6546 72.7328 82.9496 70.3363 83.6045C69.2943 83.8873 68.818 84.4381 68.8776 85.5247C68.9222 86.5964 68.8776 87.6533 68.8627 88.725C68.8627 89.6776 68.3715 90.1837 67.4337 90.2135C66.8234 90.2284 66.2131 90.2433 65.6028 90.2433C65.067 90.2433 64.5311 90.2433 63.9952 90.2284C62.9831 90.2135 62.5067 89.633 62.5067 88.6506C62.4919 87.8765 62.4919 87.0876 62.4919 86.3136C62.477 84.5869 62.4174 84.5274 60.7652 84.2595C58.6515 83.9171 56.5676 83.4408 54.6325 82.503C53.1142 81.7588 52.9505 81.3866 53.3822 79.779C53.7096 78.5882 54.0371 77.3974 54.4092 76.2215C54.6772 75.3582 54.9302 74.9712 55.3917 74.9712C55.6596 74.9712 56.002 75.1051 56.4634 75.3433C58.6068 76.4597 60.8843 77.0848 63.2808 77.3825C63.6827 77.4272 64.0846 77.457 64.4865 77.457C65.6028 77.457 66.6894 77.2486 67.7463 76.7871C70.4107 75.6261 70.8275 72.5449 68.5799 70.6991C67.8207 70.074 66.9425 69.6125 66.0345 69.2106C63.6975 68.1836 61.2713 67.4095 59.0683 66.0848C55.4959 63.9413 53.2333 61.0089 53.5013 56.6625C53.799 51.7504 56.5825 48.6841 61.0927 47.0467C62.9533 46.3769 62.9682 46.3918 62.9682 44.4567C62.9682 43.8018 62.9533 43.1468 62.9831 42.477C63.0277 41.0183 63.2659 40.7652 64.7246 40.7206C64.8884 40.7206 65.067 40.7206 65.2307 40.7206C65.5135 40.7206 65.7963 40.7206 66.0792 40.7206C66.1982 40.7206 66.3173 40.7206 66.4215 40.7206C69.1901 40.7206 69.1901 40.8397 69.205 43.8316C69.2199 46.0345 69.2199 46.0345 71.408 46.3769C73.09 46.6448 74.6827 47.136 76.2308 47.8208C77.0792 48.1929 77.4067 48.7883 77.1388 49.6963C76.7518 51.0359 76.3796 52.3905 75.9629 53.7153C75.6949 54.519 75.4419 54.8912 74.9656 54.8912C74.6976 54.8912 74.3702 54.787 73.9534 54.5786C71.8099 53.5366 69.5623 53.0305 67.2104 53.0305C66.9127 53.0305 66.6001 53.0454 66.3024 53.0603C65.6028 53.105 64.9181 53.1943 64.2632 53.4771C61.9411 54.4893 61.569 57.0495 63.5487 58.6273C64.546 59.4311 65.6921 59.9968 66.8681 60.488C68.9222 61.3364 70.9764 62.1551 72.9263 63.2268C79.059 66.6504 80.7261 74.4353 76.3647 79.7344Z" stroke="url(#paint1_linear_82_722)" stroke-width="1.99572" stroke-linecap="round" stroke-linejoin="round"/>
</g>
<g filter="url(#filter2_ddii_82_722)">
<path d="M70.3152 83.6014C72.7113 82.9462 74.7659 81.6513 76.3433 79.7313C80.705 74.4319 79.0375 66.6473 72.9049 63.2234C71.1368 62.2517 69.2826 61.4882 67.4216 60.7208L66.8467 60.4846C65.6709 59.994 64.5241 59.4278 63.5273 58.6246C61.5473 57.0462 61.9199 54.4865 64.2415 53.4742C64.6045 53.3174 64.9761 53.2207 65.3535 53.1578C65.6583 53.1065 65.968 53.0774 66.2806 53.0571C66.5787 53.0426 66.8913 53.0271 67.1893 53.0271C69.541 53.0271 71.7881 53.5332 73.9317 54.5755C74.3488 54.7836 74.6759 54.8881 74.9439 54.8881C75.4201 54.8881 75.6736 54.5165 75.9417 53.7123C76.3578 52.3874 76.7304 51.0326 77.1175 49.6932C77.3856 48.7854 77.0575 48.1903 76.2098 47.8177C74.6614 47.1335 73.0684 46.6419 71.3865 46.3738C69.1984 46.0312 69.1984 46.0312 69.1839 43.8286C69.1684 40.8363 69.1684 40.7173 66.3996 40.7173H64.7032C63.2448 40.7618 63.0067 41.0154 62.9612 42.4738C62.939 42.976 62.9419 43.4705 62.9448 43.9631L62.9467 44.4538C62.9467 45.4457 62.9428 45.9248 62.6883 46.247C62.4464 46.5528 61.978 46.7174 61.0712 47.0435C56.5615 48.6809 53.7772 51.7477 53.4801 56.6591C53.2121 61.0062 55.4747 63.9385 59.0466 66.0821C61.2502 67.407 63.6764 68.1802 66.0135 69.208C66.9213 69.6096 67.799 70.0712 68.5587 70.6964C70.8058 72.5419 70.3897 75.6232 67.7245 76.7845C66.6677 77.2451 65.5809 77.4542 64.4651 77.4542C64.2232 77.4542 63.9803 77.4435 63.7383 77.4251C63.5786 77.4126 63.419 77.3971 63.2593 77.3797C60.8631 77.0816 58.585 76.4564 56.4415 75.3406C55.9808 75.1025 55.6382 74.968 55.3701 74.968C55.0237 74.968 54.7953 75.1858 54.5892 75.659C54.5205 75.8167 54.4547 76.0026 54.3879 76.2184C54.0153 77.3942 53.6882 78.5855 53.3611 79.7758C52.9295 81.3833 53.093 81.7558 54.6114 82.5C56.546 83.4378 58.6305 83.9139 60.7441 84.2565C61.8493 84.4356 62.2412 84.5217 62.3854 85.0762C62.456 85.3501 62.4657 85.7391 62.4706 86.3101C62.4706 87.0843 62.4706 87.874 62.4851 88.6472C62.4851 89.6295 62.9612 90.2101 63.9735 90.2256C64.5096 90.2401 65.0458 90.2401 65.5809 90.2401C66.1916 90.2401 66.8022 90.2256 67.4119 90.2101C68.3497 90.1811 68.8413 89.675 68.8413 88.7217C68.8558 87.6504 68.9003 86.5936 68.8558 85.5214C68.8287 85.0181 68.9158 84.6291 69.121 84.3291C69.359 83.9817 69.7558 83.7533 70.3152 83.6014Z" fill="url(#paint2_linear_82_722)"/>
<path d="M66.3999 40.5054C67.0882 40.5054 67.6238 40.5131 68.0317 40.5737C68.4417 40.6347 68.7623 40.7541 68.9849 41.0122C69.2027 41.2649 69.2957 41.6157 69.3423 42.0581C69.3891 42.5031 69.3921 43.0842 69.396 43.8276C69.3997 44.383 69.4024 44.7826 69.437 45.0835C69.4715 45.3832 69.5343 45.5496 69.6304 45.6606C69.7267 45.7717 69.8831 45.8584 70.1763 45.937C70.3233 45.9764 70.4959 46.0121 70.7007 46.0483L71.4194 46.1646C73.1207 46.4357 74.7312 46.9329 76.2944 47.6235C76.745 47.8215 77.0868 48.0922 77.271 48.4604C77.4563 48.8311 77.4649 49.2653 77.3208 49.7534C76.9349 51.0888 76.561 52.4484 76.144 53.7759L76.1421 53.7788C76.007 54.1841 75.867 54.5099 75.6851 54.7349C75.492 54.9735 75.2512 55.1001 74.9438 55.1001C74.6262 55.1001 74.2638 54.9776 73.8394 54.7661L73.4419 54.5796C71.4477 53.6775 69.3642 53.2388 67.189 53.2388C66.898 53.2388 66.5917 53.2526 66.2935 53.2671L66.2944 53.2681C65.9855 53.2882 65.6831 53.3171 65.3882 53.3667C65.1147 53.4123 64.847 53.4754 64.5854 53.5669L64.3257 53.6685C63.2228 54.1495 62.6051 54.9859 62.481 55.8667C62.3569 56.7467 62.7203 57.7107 63.6597 58.4595H63.6606C64.6338 59.2436 65.7579 59.801 66.9263 60.2886L67.5024 60.5249C69.3613 61.2915 71.2263 62.0595 73.0063 63.0376L73.0083 63.0386C79.2479 66.5223 80.9571 74.4565 76.5063 79.8647C74.8999 81.8201 72.8072 83.139 70.3706 83.8052C69.9021 83.9324 69.5818 84.1086 69.3765 84.3442L69.2954 84.4487C69.1463 84.6669 69.0642 84.9529 69.063 85.3384L69.0669 85.5103V85.5122C69.1117 86.5921 69.0676 87.6609 69.0532 88.7241C69.0528 89.2344 68.9199 89.6588 68.6304 89.9595C68.3401 90.2607 67.9227 90.4058 67.4185 90.4214H67.4175C66.8079 90.4369 66.1942 90.4517 65.5806 90.4517C65.046 90.4517 64.5066 90.4516 63.9673 90.437V90.436C63.4227 90.4271 62.9882 90.2664 62.6929 89.9419C62.3997 89.6197 62.2729 89.1694 62.2729 88.647H62.2739C62.2595 87.8734 62.2593 87.0839 62.2593 86.312L62.2534 85.9165C62.248 85.6781 62.2381 85.4885 62.2183 85.3345L62.1802 85.1294C62.1498 85.0125 62.1101 84.9342 62.061 84.8755C62.0122 84.8171 61.9443 84.766 61.8394 84.7192C61.616 84.6197 61.2731 84.5565 60.7104 84.4653C58.5897 84.1216 56.481 83.642 54.519 82.6909L54.5181 82.6899C53.768 82.3223 53.2745 82.0147 53.062 81.5493C52.8495 81.0835 52.9437 80.5148 53.1567 79.7212V79.7202C53.4836 78.5307 53.812 77.3351 54.186 76.1548C54.2539 75.9354 54.3222 75.7419 54.395 75.5747C54.5032 75.3263 54.6269 75.1219 54.7856 74.979C54.9516 74.8296 55.1463 74.7563 55.3706 74.7563C55.6964 74.7565 56.0813 74.9165 56.5386 75.1528H56.5396C58.6566 76.2548 60.9096 76.8739 63.2856 77.1694H63.2847C63.4419 77.1866 63.599 77.202 63.7554 77.2144H63.7544C63.9918 77.2324 64.2296 77.2427 64.4653 77.2427C65.5537 77.2426 66.6117 77.0386 67.6401 76.5903C68.9107 76.0366 69.6285 75.0351 69.7739 73.9683C69.9103 72.9678 69.5469 71.8846 68.6177 71.0278L68.4243 70.8599C67.7783 70.3283 67.0407 69.915 66.2632 69.5532L65.9282 69.4019C63.6192 68.3865 61.1561 67.5967 58.938 66.2632C57.1335 65.1803 55.6465 63.8906 54.645 62.3101C53.6415 60.7264 53.1324 58.8622 53.269 56.646C53.42 54.1514 54.2038 52.1132 55.5317 50.4897C56.8584 48.868 58.7176 47.6725 60.9985 46.8442H60.9995C61.4569 46.6797 61.7903 46.5611 62.0405 46.4458C62.2896 46.331 62.4315 46.23 62.522 46.1157L62.5854 46.019C62.642 45.9133 62.6797 45.776 62.7026 45.5776C62.7337 45.3086 62.7349 44.9547 62.7349 44.4546L62.7329 43.9644C62.73 43.4726 62.727 42.9728 62.7495 42.4644C62.761 42.0987 62.7854 41.7938 62.8413 41.5444C62.8979 41.2921 62.9908 41.08 63.1519 40.9165C63.313 40.7531 63.5224 40.6574 63.7739 40.5991C64.0232 40.5414 64.3293 40.5166 64.6968 40.5054H66.3999Z" stroke="url(#paint3_linear_82_722)" stroke-width="0.423334" stroke-linecap="round" stroke-linejoin="round"/>
</g>
<defs>
<filter id="filter0_d_82_722" x="0.355553" y="0.766665" width="131.335" height="131.335" filterUnits="userSpaceOnUse" color-interpolation-filters="sRGB">
<feFlood flood-opacity="0" result="BackgroundImageFix"/>
<feColorMatrix in="SourceAlpha" type="matrix" values="0 0 0 0 0 0 0 0 0 0 0 0 0 0 0 0 0 0 127 0" result="hardAlpha"/>
<feOffset dy="1.41111"/>
<feGaussianBlur stdDeviation="2.82222"/>
<feComposite in2="hardAlpha" operator="out"/>
<feColorMatrix type="matrix" values="0 0 0 0 0.305882 0 0 0 0 0.623529 0 0 0 0 1 0 0 0 0.2 0"/>
<feBlend mode="normal" in2="BackgroundImageFix" result="effect1_dropShadow_82_722"/>
<feBlend mode="normal" in="SourceGraphic" in2="effect1_dropShadow_82_722" result="shape"/>
</filter>
<filter id="filter1_dddii_82_722" x="19.122" y="23.2524" width="93.7059" height="93.7059" filterUnits="userSpaceOnUse" color-interpolation-filters="sRGB">
<feFlood flood-opacity="0" result="BackgroundImageFix"/>
<feColorMatrix in="SourceAlpha" type="matrix" values="0 0 0 0 0 0 0 0 0 0 0 0 0 0 0 0 0 0 127 0" result="hardAlpha"/>
<feOffset dy="0.605273"/>
<feGaussianBlur stdDeviation="0.605273"/>
<feComposite in2="hardAlpha" operator="out"/>
<feColorMatrix type="matrix" values="0 0 0 0 0.180924 0 0 0 0 0.356669 0 0 0 0 0.883903 0 0 0 0.24 0"/>
<feBlend mode="normal" in2="BackgroundImageFix" result="effect1_dropShadow_82_722"/>
<feColorMatrix in="SourceAlpha" type="matrix" values="0 0 0 0 0 0 0 0 0 0 0 0 0 0 0 0 0 0 127 0" result="hardAlpha"/>
<feOffset dy="4.63085"/>
<feGaussianBlur stdDeviation="4.84218"/>
<feComposite in2="hardAlpha" operator="out"/>
<feColorMatrix type="matrix" values="0 0 0 0 0.164706 0 0 0 0 0.521569 0 0 0 0 1 0 0 0 0.06 0"/>
<feBlend mode="normal" in2="effect1_dropShadow_82_722" result="effect2_dropShadow_82_722"/>
<feColorMatrix in="SourceAlpha" type="matrix" values="0 0 0 0 0 0 0 0 0 0 0 0 0 0 0 0 0 0 127 0" result="hardAlpha"/>
<feOffset dy="2.20856"/>
<feGaussianBlur stdDeviation="2.42109"/>
<feComposite in2="hardAlpha" operator="out"/>
<feColorMatrix type="matrix" values="0 0 0 0 0.0666667 0 0 0 0 0.137255 0 0 0 0 0.34902 0 0 0 0.05 0"/>
<feBlend mode="normal" in2="effect2_dropShadow_82_722" result="effect3_dropShadow_82_722"/>
<feBlend mode="normal" in="SourceGraphic" in2="effect3_dropShadow_82_722" result="shape"/>
<feColorMatrix in="SourceAlpha" type="matrix" values="0 0 0 0 0 0 0 0 0 0 0 0 0 0 0 0 0 0 127 0" result="hardAlpha"/>
<feOffset dy="2.42109"/>
<feGaussianBlur stdDeviation="0.605273"/>
<feComposite in2="hardAlpha" operator="arithmetic" k2="-1" k3="1"/>
<feColorMatrix type="matrix" values="0 0 0 0 1 0 0 0 0 1 0 0 0 0 1 0 0 0 0.7 0"/>
<feBlend mode="normal" in2="shape" result="effect4_innerShadow_82_722"/>
<feColorMatrix in="SourceAlpha" type="matrix" values="0 0 0 0 0 0 0 0 0 0 0 0 0 0 0 0 0 0 127 0" result="hardAlpha"/>
<feOffset dy="-1.21055"/>
<feGaussianBlur stdDeviation="0.605273"/>
<feComposite in2="hardAlpha" operator="arithmetic" k2="-1" k3="1"/>
<feColorMatrix type="matrix" values="0 0 0 0 0 0 0 0 0 0.159074 0 0 0 0 0.636296 0 0 0 0.44 0"/>
<feBlend mode="normal" in2="effect4_innerShadow_82_722" result="effect5_innerShadow_82_722"/>
</filter>
<filter id="filter2_ddii_82_722" x="45.3049" y="35.3431" width="41.3346" height="65.2216" filterUnits="userSpaceOnUse" color-interpolation-filters="sRGB">
<feFlood flood-opacity="0" result="BackgroundImageFix"/>
<feColorMatrix in="SourceAlpha" type="matrix" values="0 0 0 0 0 0 0 0 0 0 0 0 0 0 0 0 0 0 127 0" result="hardAlpha"/>
<feOffset dy="0.618821"/>
<feGaussianBlur stdDeviation="0.618821"/>
<feComposite in2="hardAlpha" operator="out"/>
<feColorMatrix type="matrix" values="0 0 0 0 0.0862745 0 0 0 0 0.407843 0 0 0 0 0.956863 0 0 0 0.4 0"/>
<feBlend mode="normal" in2="BackgroundImageFix" result="effect1_dropShadow_82_722"/>
<feColorMatrix in="SourceAlpha" type="matrix" values="0 0 0 0 0 0 0 0 0 0 0 0 0 0 0 0 0 0 127 0" result="hardAlpha"/>
<feOffset dy="2.47528"/>
<feGaussianBlur stdDeviation="3.71292"/>
<feComposite in2="hardAlpha" operator="out"/>
<feColorMatrix type="matrix" values="0 0 0 0 0.0745098 0 0 0 0 0.392157 0 0 0 0 0.94902 0 0 0 0.35 0"/>
<feBlend mode="normal" in2="effect1_dropShadow_82_722" result="effect2_dropShadow_82_722"/>
<feBlend mode="normal" in="SourceGraphic" in2="effect2_dropShadow_82_722" result="shape"/>
<feColorMatrix in="SourceAlpha" type="matrix" values="0 0 0 0 0 0 0 0 0 0 0 0 0 0 0 0 0 0 127 0" result="hardAlpha"/>
<feOffset dy="2.16932"/>
<feGaussianBlur stdDeviation="0.32655"/>
<feComposite in2="hardAlpha" operator="arithmetic" k2="-1" k3="1"/>
<feColorMatrix type="matrix" values="0 0 0 0 1 0 0 0 0 1 0 0 0 0 1 0 0 0 0.35 0"/>
<feBlend mode="normal" in2="shape" result="effect3_innerShadow_82_722"/>
<feColorMatrix in="SourceAlpha" type="matrix" values="0 0 0 0 0 0 0 0 0 0 0 0 0 0 0 0 0 0 127 0" result="hardAlpha"/>
<feOffset dy="-2.6124"/>
<feGaussianBlur stdDeviation="0.32655"/>
<feComposite in2="hardAlpha" operator="arithmetic" k2="-1" k3="1"/>
<feColorMatrix type="matrix" values="0 0 0 0 0.0561283 0 0 0 0 0.236664 0 0 0 0 0.778271 0 0 0 0.4 0"/>
<feBlend mode="normal" in2="effect3_innerShadow_82_722" result="effect4_innerShadow_82_722"/>
</filter>
<linearGradient id="paint0_linear_82_722" x1="65.975" y1="29.3037" x2="65.975" y2="101.645" gradientUnits="userSpaceOnUse">
<stop stop-color="#025252"/>
<stop offset="1" stop-color="#1ADEBC"/>
</linearGradient>
<linearGradient id="paint1_linear_82_722" x1="65.975" y1="29.3037" x2="65.975" y2="101.645" gradientUnits="userSpaceOnUse">
<stop stop-color="#0D2B2B"/>
<stop offset="1" stop-color="#0F8573"/>
</linearGradient>
<linearGradient id="paint2_linear_82_722" x1="65.9717" y1="40.7173" x2="65.9717" y2="90.2401" gradientUnits="userSpaceOnUse">
<stop stop-color="#0D2B2B"/>
<stop offset="1" stop-color="#025252"/>
</linearGradient>
<linearGradient id="paint3_linear_82_722" x1="65.9717" y1="40.7173" x2="65.9717" y2="90.2401" gradientUnits="userSpaceOnUse">
<stop stop-color="#0D2B2B"/>
<stop offset="1" stop-color="#025252"/>
</linearGradient>
</defs>
</svg>