<svg width="21" height="20" viewBox="0 0 21 20" fill="none" xmlns="http://www.w3.org/2000/svg">
<path d="M16.2852 3.33301H4.61853C3.95549 3.33301 3.3196 3.5964 2.85076 4.06524C2.38192 4.53408 2.11853 5.16997 2.11853 5.83301V14.1663C2.11853 14.8294 2.38192 15.4653 2.85076 15.9341C3.3196 16.4029 3.95549 16.6663 4.61853 16.6663H16.2852C16.9482 16.6663 17.5841 16.4029 18.053 15.9341C18.5218 15.4653 18.7852 14.8294 18.7852 14.1663V5.83301C18.7852 5.16997 18.5218 4.53408 18.053 4.06524C17.5841 3.5964 16.9482 3.33301 16.2852 3.33301ZM16.2852 4.99967L10.8685 8.72467C10.7418 8.79781 10.5981 8.83632 10.4519 8.83632C10.3056 8.83632 10.1619 8.79781 10.0352 8.72467L4.61853 4.99967H16.2852Z" fill="#0061FE"/>
</svg>