<svg width="23" height="23" viewBox="0 0 23 23" fill="none" xmlns="http://www.w3.org/2000/svg">
<path d="M17.4618 8.27218C17.4618 7.42735 17.2954 6.59078 16.9721 5.81026C16.6488 5.02973 16.175 4.32053 15.5776 3.72314C14.9802 3.12575 14.271 2.65188 13.4904 2.32857C12.7099 2.00527 11.8734 1.83887 11.0285 1.83887C10.1837 1.83887 9.34713 2.00527 8.5666 2.32857C7.78608 2.65188 7.07688 3.12575 6.47949 3.72314C5.8821 4.32053 5.40823 5.02973 5.08492 5.81026C4.76162 6.59078 4.59521 7.42735 4.59521 8.27218C4.59521 9.5469 4.9711 10.7325 5.61076 11.7324H5.60341L11.0285 20.2198L16.4536 11.7324H16.4472C17.1098 10.6999 17.4619 9.49894 17.4618 8.27218ZM11.0285 11.0293C10.2973 11.0293 9.596 10.7388 9.07894 10.2218C8.56188 9.70471 8.27139 9.00342 8.27139 8.27218C8.27139 7.54094 8.56188 6.83965 9.07894 6.32259C9.596 5.80553 10.2973 5.51505 11.0285 5.51505C11.7598 5.51505 12.4611 5.80553 12.9781 6.32259C13.4952 6.83965 13.7857 7.54094 13.7857 8.27218C13.7857 9.00342 13.4952 9.70471 12.9781 10.2218C12.4611 10.7388 11.7598 11.0293 11.0285 11.0293Z" fill="#0061FE"/>
</svg>