<svg width="80" height="76" viewBox="0 0 80 76" fill="none" xmlns="http://www.w3.org/2000/svg">
<g filter="url(#filter0_dddii_82_704)">
<path fill-rule="evenodd" clip-rule="evenodd" d="M34.5371 53.2955L29.0864 56.4393C22.8224 60.0521 14.8168 57.903 11.203 51.6375L10.7546 50.8601C7.14086 44.5946 9.28808 36.5865 15.552 32.9736L20.1777 30.3057L34.5371 53.2955ZM23.9575 27.8353L45.6263 6.90206C47.1269 5.45282 49.2107 4.7766 51.2745 5.06553C53.3396 5.35675 55.1555 6.58324 56.1978 8.39041L70.7203 33.5692C71.7626 35.3764 71.9149 37.5624 71.1329 39.4957C70.3495 41.4268 68.7207 42.8919 66.7148 43.4651L38.7149 51.4604L23.9575 27.8353Z" fill="url(#paint0_linear_82_704)"/>
<path fill-rule="evenodd" clip-rule="evenodd" d="M34.5371 53.2955L29.0864 56.4393C22.8224 60.0521 14.8168 57.903 11.203 51.6375L10.7546 50.8601C7.14086 44.5946 9.28808 36.5865 15.552 32.9736L20.1777 30.3057L34.5371 53.2955ZM23.9575 27.8353L45.6263 6.90206C47.1269 5.45282 49.2107 4.7766 51.2745 5.06553C53.3396 5.35675 55.1555 6.58324 56.1978 8.39041L70.7203 33.5692C71.7626 35.3764 71.9149 37.5624 71.1329 39.4957C70.3495 41.4268 68.7207 42.8919 66.7148 43.4651L38.7149 51.4604L23.9575 27.8353Z" stroke="url(#paint1_linear_82_704)" stroke-width="1.5211" stroke-linecap="round" stroke-linejoin="round"/>
</g>
<g filter="url(#filter1_ddii_82_704)">
<path fill-rule="evenodd" clip-rule="evenodd" d="M43.9439 54.4436L45.1331 56.5053C46.0299 58.0602 46.2722 59.9101 45.8052 61.6434C45.3411 63.3781 44.2054 64.8583 42.65 65.7554L40.327 67.0953C38.7716 67.9924 36.9216 68.2342 35.1877 67.7672C33.4535 67.3035 31.9736 66.1674 31.0768 64.6125L29.094 61.1748C29.7186 60.9062 30.3319 60.5983 30.9338 60.2512L38.1124 56.1108L43.9439 54.4436Z" fill="url(#paint2_linear_82_704)"/>
<path d="M43.9534 54.2825C44.0062 54.2856 44.0555 54.3148 44.0833 54.3625L45.2727 56.425C46.1908 58.017 46.4393 59.9111 45.9612 61.6858C45.486 63.4615 44.3229 64.9763 42.7307 65.8948L40.4075 67.2346C38.8149 68.1531 36.921 68.4012 35.1458 67.9231C33.3703 67.4483 31.8549 66.2854 30.9368 64.6936L28.9543 61.2551C28.9315 61.2154 28.9263 61.1678 28.9407 61.1243C28.9552 61.0805 28.9882 61.0448 29.0305 61.0266C29.6491 60.7606 30.2564 60.4555 30.8528 60.1116L38.0315 55.9709C38.0428 55.9644 38.0551 55.9589 38.0676 55.9553L43.8997 54.2883L43.9534 54.2825Z" stroke="url(#paint3_linear_82_704)" stroke-width="0.322657" stroke-linecap="round" stroke-linejoin="round"/>
</g>
<defs>
<filter id="filter0_dddii_82_704" x="0.858001" y="0.387797" width="78.911" height="69.4764" filterUnits="userSpaceOnUse" color-interpolation-filters="sRGB">
<feFlood flood-opacity="0" result="BackgroundImageFix"/>
<feColorMatrix in="SourceAlpha" type="matrix" values="0 0 0 0 0 0 0 0 0 0 0 0 0 0 0 0 0 0 127 0" result="hardAlpha"/>
<feOffset dy="0.461329"/>
<feGaussianBlur stdDeviation="0.461329"/>
<feComposite in2="hardAlpha" operator="out"/>
<feColorMatrix type="matrix" values="0 0 0 0 0.180924 0 0 0 0 0.356669 0 0 0 0 0.883903 0 0 0 0.24 0"/>
<feBlend mode="normal" in2="BackgroundImageFix" result="effect1_dropShadow_82_704"/>
<feColorMatrix in="SourceAlpha" type="matrix" values="0 0 0 0 0 0 0 0 0 0 0 0 0 0 0 0 0 0 127 0" result="hardAlpha"/>
<feOffset dy="3.52955"/>
<feGaussianBlur stdDeviation="3.69063"/>
<feComposite in2="hardAlpha" operator="out"/>
<feColorMatrix type="matrix" values="0 0 0 0 0.164706 0 0 0 0 0.521569 0 0 0 0 1 0 0 0 0.06 0"/>
<feBlend mode="normal" in2="effect1_dropShadow_82_704" result="effect2_dropShadow_82_704"/>
<feColorMatrix in="SourceAlpha" type="matrix" values="0 0 0 0 0 0 0 0 0 0 0 0 0 0 0 0 0 0 127 0" result="hardAlpha"/>
<feOffset dy="1.68332"/>
<feGaussianBlur stdDeviation="1.84531"/>
<feComposite in2="hardAlpha" operator="out"/>
<feColorMatrix type="matrix" values="0 0 0 0 0.0666667 0 0 0 0 0.137255 0 0 0 0 0.34902 0 0 0 0.05 0"/>
<feBlend mode="normal" in2="effect2_dropShadow_82_704" result="effect3_dropShadow_82_704"/>
<feBlend mode="normal" in="SourceGraphic" in2="effect3_dropShadow_82_704" result="shape"/>
<feColorMatrix in="SourceAlpha" type="matrix" values="0 0 0 0 0 0 0 0 0 0 0 0 0 0 0 0 0 0 127 0" result="hardAlpha"/>
<feOffset dy="1.84531"/>
<feGaussianBlur stdDeviation="0.461329"/>
<feComposite in2="hardAlpha" operator="arithmetic" k2="-1" k3="1"/>
<feColorMatrix type="matrix" values="0 0 0 0 1 0 0 0 0 1 0 0 0 0 1 0 0 0 0.7 0"/>
<feBlend mode="normal" in2="shape" result="effect4_innerShadow_82_704"/>
<feColorMatrix in="SourceAlpha" type="matrix" values="0 0 0 0 0 0 0 0 0 0 0 0 0 0 0 0 0 0 127 0" result="hardAlpha"/>
<feOffset dy="-0.922657"/>
<feGaussianBlur stdDeviation="0.461329"/>
<feComposite in2="hardAlpha" operator="arithmetic" k2="-1" k3="1"/>
<feColorMatrix type="matrix" values="0 0 0 0 0 0 0 0 0 0.159074 0 0 0 0 0.636296 0 0 0 0.44 0"/>
<feBlend mode="normal" in2="effect4_innerShadow_82_704" result="effect5_innerShadow_82_704"/>
</filter>
<filter id="filter1_ddii_82_704" x="23.1114" y="50.3476" width="28.9088" height="25.5214" filterUnits="userSpaceOnUse" color-interpolation-filters="sRGB">
<feFlood flood-opacity="0" result="BackgroundImageFix"/>
<feColorMatrix in="SourceAlpha" type="matrix" values="0 0 0 0 0 0 0 0 0 0 0 0 0 0 0 0 0 0 127 0" result="hardAlpha"/>
<feOffset dy="0.471654"/>
<feGaussianBlur stdDeviation="0.471654"/>
<feComposite in2="hardAlpha" operator="out"/>
<feColorMatrix type="matrix" values="0 0 0 0 0.0862745 0 0 0 0 0.407843 0 0 0 0 0.956863 0 0 0 0.4 0"/>
<feBlend mode="normal" in2="BackgroundImageFix" result="effect1_dropShadow_82_704"/>
<feColorMatrix in="SourceAlpha" type="matrix" values="0 0 0 0 0 0 0 0 0 0 0 0 0 0 0 0 0 0 127 0" result="hardAlpha"/>
<feOffset dy="1.88662"/>
<feGaussianBlur stdDeviation="2.82993"/>
<feComposite in2="hardAlpha" operator="out"/>
<feColorMatrix type="matrix" values="0 0 0 0 0.0745098 0 0 0 0 0.392157 0 0 0 0 0.94902 0 0 0 0.35 0"/>
<feBlend mode="normal" in2="effect1_dropShadow_82_704" result="effect2_dropShadow_82_704"/>
<feBlend mode="normal" in="SourceGraphic" in2="effect2_dropShadow_82_704" result="shape"/>
<feColorMatrix in="SourceAlpha" type="matrix" values="0 0 0 0 0 0 0 0 0 0 0 0 0 0 0 0 0 0 127 0" result="hardAlpha"/>
<feOffset dy="1.65342"/>
<feGaussianBlur stdDeviation="0.248891"/>
<feComposite in2="hardAlpha" operator="arithmetic" k2="-1" k3="1"/>
<feColorMatrix type="matrix" values="0 0 0 0 1 0 0 0 0 1 0 0 0 0 1 0 0 0 0.35 0"/>
<feBlend mode="normal" in2="shape" result="effect3_innerShadow_82_704"/>
<feColorMatrix in="SourceAlpha" type="matrix" values="0 0 0 0 0 0 0 0 0 0 0 0 0 0 0 0 0 0 127 0" result="hardAlpha"/>
<feOffset dy="-1.99113"/>
<feGaussianBlur stdDeviation="0.248891"/>
<feComposite in2="hardAlpha" operator="arithmetic" k2="-1" k3="1"/>
<feColorMatrix type="matrix" values="0 0 0 0 0.0561283 0 0 0 0 0.236664 0 0 0 0 0.778271 0 0 0 0.4 0"/>
<feBlend mode="normal" in2="effect3_innerShadow_82_704" result="effect4_innerShadow_82_704"/>
</filter>
<linearGradient id="paint0_linear_82_704" x1="40.3135" y1="5" x2="40.3135" y2="58.1927" gradientUnits="userSpaceOnUse">
<stop stop-color="#E9F1FF"/>
<stop offset="1" stop-color="#B2CDFF"/>
</linearGradient>
<linearGradient id="paint1_linear_82_704" x1="40.3135" y1="5" x2="40.3135" y2="58.1927" gradientUnits="userSpaceOnUse">
<stop stop-color="#E9F1FF"/>
<stop offset="1" stop-color="#82AEFF"/>
</linearGradient>
<linearGradient id="paint2_linear_82_704" x1="37.5659" y1="54.4436" x2="37.5659" y2="67.9999" gradientUnits="userSpaceOnUse">
<stop stop-color="#0D2B2B"/>
<stop offset="1" stop-color="#09FFFF"/>
</linearGradient>
<linearGradient id="paint3_linear_82_704" x1="37.5659" y1="54.4436" x2="37.5659" y2="67.9999" gradientUnits="userSpaceOnUse">
<stop stop-color="#0D2B2B"/>
<stop offset="1" stop-color="#09FFFF"/>
</linearGradient>
</defs>
</svg>