<svg width="21" height="20" viewBox="0 0 21 20" fill="none" xmlns="http://www.w3.org/2000/svg">
<path d="M13.1582 13.425L14.5582 12.025C14.7467 11.8388 14.9853 11.7113 15.2449 11.6581C15.5045 11.6048 15.774 11.6281 16.0207 11.725L17.7269 12.4063C17.9762 12.5074 18.1899 12.6801 18.3412 12.9026C18.4924 13.125 18.5745 13.3873 18.5769 13.6563V16.7813C18.5755 16.9643 18.537 17.1451 18.4638 17.3128C18.3907 17.4805 18.2843 17.6317 18.1512 17.7573C18.0181 17.8828 17.8609 17.9801 17.6892 18.0433C17.5174 18.1065 17.3347 18.1343 17.1519 18.125C5.19568 17.3813 2.78318 7.25628 2.32693 3.38128C2.30575 3.19099 2.3251 2.99837 2.38371 2.81609C2.44232 2.63382 2.53885 2.46602 2.66697 2.32374C2.79508 2.18145 2.95188 2.0679 3.12703 1.99057C3.30218 1.91323 3.49172 1.87385 3.68318 1.87503H6.70193C6.97131 1.87582 7.23429 1.95719 7.45705 2.10867C7.67981 2.26015 7.85216 2.4748 7.95193 2.72503L8.63318 4.43128C8.73334 4.67694 8.75889 4.94668 8.70665 5.20678C8.6544 5.46689 8.52668 5.70584 8.33943 5.89378L6.93943 7.29378C6.93943 7.29378 7.74568 12.75 13.1582 13.425Z" fill="#0061FE"/>
</svg>