<svg width="16" height="13" viewBox="0 0 16 13" fill="none" xmlns="http://www.w3.org/2000/svg">
<path d="M1.59367 5.72653C5.6202 3.97223 8.30517 2.8157 9.64861 2.25692C13.4844 0.661481 14.2814 0.384338 14.8009 0.375089C14.9152 0.373174 15.1707 0.40149 15.3362 0.535771C15.4759 0.649155 15.5143 0.802321 15.5327 0.909821C15.5511 1.01732 15.574 1.26221 15.5558 1.45356C15.348 3.63759 14.4486 8.93765 13.991 11.3838C13.7974 12.4189 13.4161 12.7659 13.047 12.7999C12.2449 12.8737 11.6359 12.2698 10.859 11.7605C9.64335 10.9637 8.95659 10.4676 7.77659 9.69C6.4129 8.79135 7.29692 8.29744 8.07409 7.49024C8.27747 7.27899 11.8115 4.06449 11.8799 3.77289C11.8885 3.73642 11.8964 3.60047 11.8157 3.52869C11.7349 3.45691 11.6157 3.48146 11.5297 3.50098C11.4078 3.52865 9.46575 4.81225 5.70365 7.35178C5.15241 7.7303 4.65312 7.91473 4.20577 7.90506C3.71261 7.89441 2.76396 7.62622 2.05873 7.39698C1.19374 7.1158 0.50627 6.96715 0.566134 6.48963C0.597315 6.24091 0.939827 5.98654 1.59367 5.72653Z" fill="#00FFFF"/>
</svg>