<svg width="117" height="117" viewBox="0 0 117 117" fill="none" xmlns="http://www.w3.org/2000/svg">
<g filter="url(#filter0_d_82_1002)">
<rect x="15.5" y="8" width="86" height="86" rx="43" fill="url(#paint0_linear_82_1002)"/>
</g>
<g filter="url(#filter1_dddii_82_1002)">
<path d="M87.7888 67.6387C87.7888 68.3449 87.5083 69.0222 87.009 69.5215C86.5096 70.0208 85.8324 70.3014 85.1262 70.3014H53.1746C52.4684 70.3014 51.7912 70.0208 51.2918 69.5215C50.7925 69.0222 50.512 68.3449 50.512 67.6387C50.512 63.4017 52.1951 59.3382 55.1912 56.3421C58.1872 53.3461 62.2507 51.6629 66.4878 51.6629H71.813C76.0501 51.6629 80.1136 53.3461 83.1096 56.3421C86.1057 59.3382 87.7888 63.4017 87.7888 67.6387ZM69.1504 27.6992C67.0439 27.6992 64.9848 28.3239 63.2333 29.4942C61.4818 30.6645 60.1167 32.3278 59.3106 34.274C58.5045 36.2201 58.2936 38.3616 58.7045 40.4276C59.1155 42.4936 60.1298 44.3913 61.6193 45.8808C63.1088 47.3703 65.0066 48.3847 67.0726 48.7956C69.1386 49.2066 71.2801 48.9957 73.2262 48.1896C75.1723 47.3835 76.8357 46.0183 78.006 44.2669C79.1763 42.5154 79.8009 40.4562 79.8009 38.3498C79.8009 35.5251 78.6788 32.8161 76.6815 30.8187C74.6841 28.8213 71.9751 27.6992 69.1504 27.6992Z" fill="url(#paint1_linear_82_1002)"/>
<path d="M87.7888 67.6387C87.7888 68.3449 87.5083 69.0222 87.009 69.5215C86.5096 70.0208 85.8324 70.3014 85.1262 70.3014H53.1746C52.4684 70.3014 51.7912 70.0208 51.2918 69.5215C50.7925 69.0222 50.512 68.3449 50.512 67.6387C50.512 63.4017 52.1951 59.3382 55.1912 56.3421C58.1872 53.3461 62.2507 51.6629 66.4878 51.6629H71.813C76.0501 51.6629 80.1136 53.3461 83.1096 56.3421C86.1057 59.3382 87.7888 63.4017 87.7888 67.6387ZM69.1504 27.6992C67.0439 27.6992 64.9848 28.3239 63.2333 29.4942C61.4818 30.6645 60.1167 32.3278 59.3106 34.274C58.5045 36.2201 58.2936 38.3616 58.7045 40.4276C59.1155 42.4936 60.1298 44.3913 61.6193 45.8808C63.1088 47.3703 65.0066 48.3847 67.0726 48.7956C69.1386 49.2066 71.2801 48.9957 73.2262 48.1896C75.1723 47.3835 76.8357 46.0183 78.006 44.2669C79.1763 42.5154 79.8009 40.4562 79.8009 38.3498C79.8009 35.5251 78.6788 32.8161 76.6815 30.8187C74.6841 28.8213 71.9751 27.6992 69.1504 27.6992Z" stroke="url(#paint2_linear_82_1002)" stroke-width="1.99542" stroke-linecap="round" stroke-linejoin="round"/>
</g>
<g filter="url(#filter2_ddii_82_1002)">
<path d="M45.1867 27.6992C43.0803 27.6992 41.0211 28.3239 39.2696 29.4942C37.5182 30.6645 36.153 32.3278 35.3469 34.274C34.5408 36.2201 34.3299 38.3616 34.7409 40.4276C35.1518 42.4936 36.1662 44.3913 37.6557 45.8808C39.1452 47.3703 41.0429 48.3847 43.1089 48.7956C45.1749 49.2066 47.3164 48.9957 49.2625 48.1896C51.2087 47.3835 52.872 46.0183 54.0423 44.2669C55.2126 42.5154 55.8373 40.4562 55.8373 38.3498C55.8373 35.5251 54.7152 32.8161 52.7178 30.8187C50.7204 28.8213 48.0114 27.6992 45.1867 27.6992ZM45.1867 67.6387C45.1828 64.8419 45.7338 62.0721 46.8079 59.4898C47.8819 56.9074 49.4577 54.5639 51.4439 52.5949C49.8185 51.9812 48.0957 51.6655 46.3583 51.6629H44.0152C40.091 51.67 36.3296 53.232 33.5548 56.0068C30.78 58.7816 29.218 62.543 29.2109 66.4672V67.6387C29.2109 68.3449 29.4915 69.0222 29.9908 69.5215C30.4901 70.0208 31.1674 70.3014 31.8736 70.3014H45.666C45.356 69.4475 45.1939 68.5471 45.1867 67.6387Z" fill="white"/>
<path d="M46.3584 51.4512L47.0186 51.4668C48.5567 51.5383 50.0755 51.8517 51.5186 52.3965C51.5859 52.4219 51.6363 52.4803 51.6514 52.5508C51.6663 52.6212 51.6439 52.6944 51.5928 52.7451C49.6265 54.6944 48.0662 57.0148 47.0029 59.5713C45.9397 62.1277 45.3945 64.87 45.3984 67.6387C45.4056 68.5224 45.5636 69.3988 45.8652 70.2295C45.8886 70.2943 45.8784 70.3664 45.8389 70.4229C45.7992 70.4792 45.7349 70.5127 45.666 70.5127H31.874C31.1117 70.5127 30.3799 70.2099 29.8408 69.6709C29.302 69.1319 28.999 68.4008 28.999 67.6387V66.4668L29.0049 66.0938C29.1071 62.2489 30.679 58.5838 33.4053 55.8574C36.2196 53.0431 40.0345 51.4584 44.0146 51.4512H46.3584ZM45.1865 27.4873C48.0673 27.4873 50.8302 28.632 52.8672 30.6689C54.9042 32.706 56.0488 35.4688 56.0488 38.3496C56.0488 40.4979 55.4123 42.5985 54.2188 44.3848C53.0253 46.1709 51.3284 47.5626 49.3438 48.3848C47.3589 49.2069 45.1744 49.422 43.0674 49.0029C40.9604 48.5838 39.0249 47.5493 37.5059 46.0303C35.9869 44.5112 34.9523 42.5757 34.5332 40.4688C34.1141 38.3619 34.3294 36.178 35.1514 34.1934C35.9735 32.2086 37.3661 30.5119 39.1523 29.3184C40.9385 28.1249 43.0383 27.4873 45.1865 27.4873Z" stroke="white" stroke-width="0.423271" stroke-linecap="round" stroke-linejoin="round"/>
</g>
<defs>
<filter id="filter0_d_82_1002" x="0.581633" y="0.979592" width="115.837" height="115.837" filterUnits="userSpaceOnUse" color-interpolation-filters="sRGB">
<feFlood flood-opacity="0" result="BackgroundImageFix"/>
<feColorMatrix in="SourceAlpha" type="matrix" values="0 0 0 0 0 0 0 0 0 0 0 0 0 0 0 0 0 0 127 0" result="hardAlpha"/>
<feOffset dy="7.89796"/>
<feGaussianBlur stdDeviation="7.45918"/>
<feComposite in2="hardAlpha" operator="out"/>
<feColorMatrix type="matrix" values="0 0 0 0 0.442843 0 0 0 0 0.573463 0 0 0 0 0.704083 0 0 0 0.21 0"/>
<feBlend mode="normal" in2="BackgroundImageFix" result="effect1_dropShadow_82_1002"/>
<feBlend mode="normal" in="SourceGraphic" in2="effect1_dropShadow_82_1002" result="shape"/>
</filter>
<filter id="filter1_dddii_82_1002" x="39.8312" y="21.6489" width="58.6384" height="63.9635" filterUnits="userSpaceOnUse" color-interpolation-filters="sRGB">
<feFlood flood-opacity="0" result="BackgroundImageFix"/>
<feColorMatrix in="SourceAlpha" type="matrix" values="0 0 0 0 0 0 0 0 0 0 0 0 0 0 0 0 0 0 127 0" result="hardAlpha"/>
<feOffset dy="0.605184"/>
<feGaussianBlur stdDeviation="0.605184"/>
<feComposite in2="hardAlpha" operator="out"/>
<feColorMatrix type="matrix" values="0 0 0 0 0.180924 0 0 0 0 0.356669 0 0 0 0 0.883903 0 0 0 0.24 0"/>
<feBlend mode="normal" in2="BackgroundImageFix" result="effect1_dropShadow_82_1002"/>
<feColorMatrix in="SourceAlpha" type="matrix" values="0 0 0 0 0 0 0 0 0 0 0 0 0 0 0 0 0 0 127 0" result="hardAlpha"/>
<feOffset dy="4.63017"/>
<feGaussianBlur stdDeviation="4.84147"/>
<feComposite in2="hardAlpha" operator="out"/>
<feColorMatrix type="matrix" values="0 0 0 0 0.164706 0 0 0 0 0.521569 0 0 0 0 1 0 0 0 0.06 0"/>
<feBlend mode="normal" in2="effect1_dropShadow_82_1002" result="effect2_dropShadow_82_1002"/>
<feColorMatrix in="SourceAlpha" type="matrix" values="0 0 0 0 0 0 0 0 0 0 0 0 0 0 0 0 0 0 127 0" result="hardAlpha"/>
<feOffset dy="2.20823"/>
<feGaussianBlur stdDeviation="2.42074"/>
<feComposite in2="hardAlpha" operator="out"/>
<feColorMatrix type="matrix" values="0 0 0 0 0.0666667 0 0 0 0 0.137255 0 0 0 0 0.34902 0 0 0 0.05 0"/>
<feBlend mode="normal" in2="effect2_dropShadow_82_1002" result="effect3_dropShadow_82_1002"/>
<feBlend mode="normal" in="SourceGraphic" in2="effect3_dropShadow_82_1002" result="shape"/>
<feColorMatrix in="SourceAlpha" type="matrix" values="0 0 0 0 0 0 0 0 0 0 0 0 0 0 0 0 0 0 127 0" result="hardAlpha"/>
<feOffset dy="2.42074"/>
<feGaussianBlur stdDeviation="0.605184"/>
<feComposite in2="hardAlpha" operator="arithmetic" k2="-1" k3="1"/>
<feColorMatrix type="matrix" values="0 0 0 0 1 0 0 0 0 1 0 0 0 0 1 0 0 0 0.7 0"/>
<feBlend mode="normal" in2="shape" result="effect4_innerShadow_82_1002"/>
<feColorMatrix in="SourceAlpha" type="matrix" values="0 0 0 0 0 0 0 0 0 0 0 0 0 0 0 0 0 0 127 0" result="hardAlpha"/>
<feOffset dy="-1.21037"/>
<feGaussianBlur stdDeviation="0.605184"/>
<feComposite in2="hardAlpha" operator="arithmetic" k2="-1" k3="1"/>
<feColorMatrix type="matrix" values="0 0 0 0 0 0 0 0 0 0.159074 0 0 0 0 0.636296 0 0 0 0.44 0"/>
<feBlend mode="normal" in2="effect4_innerShadow_82_1002" result="effect5_innerShadow_82_1002"/>
</filter>
<filter id="filter2_ddii_82_1002" x="21.3628" y="22.326" width="42.3224" height="58.2982" filterUnits="userSpaceOnUse" color-interpolation-filters="sRGB">
<feFlood flood-opacity="0" result="BackgroundImageFix"/>
<feColorMatrix in="SourceAlpha" type="matrix" values="0 0 0 0 0 0 0 0 0 0 0 0 0 0 0 0 0 0 127 0" result="hardAlpha"/>
<feOffset dy="0.61873"/>
<feGaussianBlur stdDeviation="0.61873"/>
<feComposite in2="hardAlpha" operator="out"/>
<feColorMatrix type="matrix" values="0 0 0 0 0.0862745 0 0 0 0 0.407843 0 0 0 0 0.956863 0 0 0 0.4 0"/>
<feBlend mode="normal" in2="BackgroundImageFix" result="effect1_dropShadow_82_1002"/>
<feColorMatrix in="SourceAlpha" type="matrix" values="0 0 0 0 0 0 0 0 0 0 0 0 0 0 0 0 0 0 127 0" result="hardAlpha"/>
<feOffset dy="2.47492"/>
<feGaussianBlur stdDeviation="3.71238"/>
<feComposite in2="hardAlpha" operator="out"/>
<feColorMatrix type="matrix" values="0 0 0 0 0.0745098 0 0 0 0 0.392157 0 0 0 0 0.94902 0 0 0 0.35 0"/>
<feBlend mode="normal" in2="effect1_dropShadow_82_1002" result="effect2_dropShadow_82_1002"/>
<feBlend mode="normal" in="SourceGraphic" in2="effect2_dropShadow_82_1002" result="shape"/>
<feColorMatrix in="SourceAlpha" type="matrix" values="0 0 0 0 0 0 0 0 0 0 0 0 0 0 0 0 0 0 127 0" result="hardAlpha"/>
<feOffset dy="2.169"/>
<feGaussianBlur stdDeviation="0.326502"/>
<feComposite in2="hardAlpha" operator="arithmetic" k2="-1" k3="1"/>
<feColorMatrix type="matrix" values="0 0 0 0 1 0 0 0 0 1 0 0 0 0 1 0 0 0 0.35 0"/>
<feBlend mode="normal" in2="shape" result="effect3_innerShadow_82_1002"/>
<feColorMatrix in="SourceAlpha" type="matrix" values="0 0 0 0 0 0 0 0 0 0 0 0 0 0 0 0 0 0 127 0" result="hardAlpha"/>
<feOffset dy="-2.61202"/>
<feGaussianBlur stdDeviation="0.326502"/>
<feComposite in2="hardAlpha" operator="arithmetic" k2="-1" k3="1"/>
<feColorMatrix type="matrix" values="0 0 0 0 0.0561283 0 0 0 0 0.236664 0 0 0 0 0.778271 0 0 0 0.4 0"/>
<feBlend mode="normal" in2="effect3_innerShadow_82_1002" result="effect4_innerShadow_82_1002"/>
</filter>
<linearGradient id="paint0_linear_82_1002" x1="58.5" y1="8" x2="91.088" y2="134.903" gradientUnits="userSpaceOnUse">
<stop stop-color="white"/>
<stop offset="1" stop-color="#DFE8FF"/>
</linearGradient>
<linearGradient id="paint1_linear_82_1002" x1="69.1504" y1="27.6992" x2="69.1504" y2="70.3014" gradientUnits="userSpaceOnUse">
<stop stop-color="#E9F1FF"/>
<stop offset="1" stop-color="#B2CDFF"/>
</linearGradient>
<linearGradient id="paint2_linear_82_1002" x1="69.1504" y1="27.6992" x2="69.1504" y2="70.3014" gradientUnits="userSpaceOnUse">
<stop stop-color="#E9F1FF"/>
<stop offset="1" stop-color="#82AEFF"/>
</linearGradient>
</defs>
</svg>